<svg id="Layer_1" data-name="Layer 1" xmlns="http://www.w3.org/2000/svg" viewBox="0 0 578.74 106.39"><defs><style>.cls-1{fill:#fff;}</style></defs><path class="cls-1" d="M75.39,334.61V402H60.63v-67.4Zm12.47,40H70.65V362.21H87.14a8.78,8.78,0,0,0,6.1-1.91,7.18,7.18,0,0,0,2.09-5.56,6.74,6.74,0,0,0-2.09-5.37,9,9,0,0,0-6.1-1.83H71.65V334.61h17q10.2,0,16,5t5.78,13.66a16.85,16.85,0,0,1-2.91,10,15.77,15.77,0,0,1-8.47,5.83v-1.27a15.08,15.08,0,0,1,9.06,5.28,16.14,16.14,0,0,1,3.14,10.29,18.81,18.81,0,0,1-2.59,10.11,16,16,0,0,1-7.65,6.33A31.63,31.63,0,0,1,88.68,402h-17V389.08H87.86c2.74,0,4.8-.62,6.2-1.87a7.13,7.13,0,0,0,2.09-5.6A6.42,6.42,0,0,0,94,376.37,9.39,9.39,0,0,0,87.86,374.6Z" transform="translate(-60.63 -296.8)"/><path class="cls-1" d="M129.49,402H114.1l24-67.4h14.39l24,67.4H160.82l-4.73-14.21H134.32Zm13.94-41-4.83,14.39h13.3L147.07,361c-.37-1.15-.73-2.33-1.09-3.55a21.87,21.87,0,0,1-.73-3,26.79,26.79,0,0,1-.69,3C144.23,358.61,143.85,359.81,143.43,361Z" transform="translate(-60.63 -296.8)"/><path class="cls-1" d="M210.74,402H184.32v-67.4h25.5a34.69,34.69,0,0,1,17.45,4.28,30.73,30.73,0,0,1,11.79,11.93,38.63,38.63,0,0,1,.14,35.07,30.26,30.26,0,0,1-11.48,11.84A33,33,0,0,1,210.74,402Zm-11.66-60.66v54.1l-7-7.1h17.22a19.77,19.77,0,0,0,10-2.37,15.53,15.53,0,0,0,6.33-6.83,24,24,0,0,0,2.19-10.66,23.6,23.6,0,0,0-2.32-10.88,16.28,16.28,0,0,0-6.65-6.92,21.11,21.11,0,0,0-10.43-2.42H192.06Z" transform="translate(-60.63 -296.8)"/><path class="cls-1" d="M268.39,402H253.63v-67.4h26.05q12.3,0,19,5.69t6.69,16.17a21.44,21.44,0,0,1-2.78,11.2,20.32,20.32,0,0,1-8.42,7.56L306,402H289.89l-10.11-23.59H268.39Zm0-54.28v17.76h11.2q4.83,0,7.52-2.37a8.41,8.41,0,0,0,2.68-6.65A8.12,8.12,0,0,0,287.2,350q-2.59-2.23-7.52-2.23Z" transform="translate(-60.63 -296.8)"/><path class="cls-1" d="M315.84,376.69V334.61H330.6v41.08q0,6.38,3.37,9.75t9.56,3.36q6.29,0,9.7-3.46t3.42-9.65V334.61H371.4v42.08A27.41,27.41,0,0,1,368,390.63a23.54,23.54,0,0,1-9.7,9.2,34.73,34.73,0,0,1-29.38,0,23.09,23.09,0,0,1-9.65-9.2A27.61,27.61,0,0,1,315.84,376.69Z" transform="translate(-60.63 -296.8)"/><path class="cls-1" d="M411.39,402H385v-67.4h25.5a34.65,34.65,0,0,1,17.44,4.28,30.82,30.82,0,0,1,11.8,11.93,38.58,38.58,0,0,1,.13,35.07,30.3,30.3,0,0,1-11.47,11.84A33,33,0,0,1,411.39,402Zm-11.66-60.66v54.1l-7-7.1h17.21a19.81,19.81,0,0,0,10-2.37,15.53,15.53,0,0,0,6.33-6.83,24.1,24.1,0,0,0,2.18-10.66,23.47,23.47,0,0,0-2.32-10.88,16.22,16.22,0,0,0-6.65-6.92A21.08,21.08,0,0,0,409,348.27h-16.3Z" transform="translate(-60.63 -296.8)"/><path class="cls-1" d="M480.7,402H454.29v-67.4h25.5a34.69,34.69,0,0,1,17.45,4.28A30.73,30.73,0,0,1,509,350.82a38.63,38.63,0,0,1,.14,35.07,30.33,30.33,0,0,1-11.48,11.84A33,33,0,0,1,480.7,402Zm-11.65-60.66v54.1l-7-7.1h17.22a19.77,19.77,0,0,0,10-2.37,15.53,15.53,0,0,0,6.33-6.83,24,24,0,0,0,2.19-10.66,23.47,23.47,0,0,0-2.33-10.88,16.2,16.2,0,0,0-6.64-6.92,21.13,21.13,0,0,0-10.43-2.42H462Z" transform="translate(-60.63 -296.8)"/><path class="cls-1" d="M538.36,334.61V402H523.6v-67.4Z" transform="translate(-60.63 -296.8)"/><path class="cls-1" d="M567,402H552.38v-67.4H567l33,49.73h-4.55V334.61H610V402H595.38l-33-49.64H567Z" transform="translate(-60.63 -296.8)"/><path class="cls-1" d="M631,403.2a8.15,8.15,0,0,1-5.92-2.42,7.8,7.8,0,0,1-2.46-5.78,7.93,7.93,0,0,1,2.46-5.88,8.43,8.43,0,0,1,11.8,0,7.89,7.89,0,0,1,2.5,5.88,7.77,7.77,0,0,1-2.5,5.78A8.22,8.22,0,0,1,631,403.2Z" transform="translate(-60.63 -296.8)"/><path class="cls-1" d="M66.74,322.71H60.63V296.8h6.11l8.56,19.33,8.6-19.33h6.19v25.91H84v-8.89c0-.91,0-1.67,0-2.28s.06-1.14.1-1.59.09-.93.17-1.42l-6.11,14.18H72.42l-6.07-14.18a21,21,0,0,1,.33,3.12q.06,1.68.06,3.81Z" transform="translate(-60.63 -296.8)"/><path class="cls-1" d="M95.89,313V296.8h6.3v15.79a4.8,4.8,0,0,0,1.44,3.75,7.13,7.13,0,0,0,8.24,0,4.78,4.78,0,0,0,1.46-3.71V296.8h6.3V313a9.72,9.72,0,0,1-1.46,5.35,9.61,9.61,0,0,1-4.14,3.54,16.34,16.34,0,0,1-12.56,0,9.45,9.45,0,0,1-4.12-3.53A9.82,9.82,0,0,1,95.89,313Z" transform="translate(-60.63 -296.8)"/><path class="cls-1" d="M131.73,322.71h-6.3V296.8h6.3V307h11.13V296.8h6.31v25.91h-6.31V312.28H131.73Z" transform="translate(-60.63 -296.8)"/><path class="cls-1" d="M159.09,322.71h-6.57l10.27-25.91h6.15l10.23,25.91h-6.69l-2-5.46h-9.3Zm6-15.75L163,312.49h5.69L166.6,307c-.15-.45-.31-.9-.46-1.37a7.31,7.31,0,0,1-.31-1.16,8.93,8.93,0,0,1-.3,1.14C165.39,306,165.23,306.49,165.05,307Z" transform="translate(-60.63 -296.8)"/><path class="cls-1" d="M188.63,322.71h-6.11V296.8h6.11l8.56,19.33,8.6-19.33H212v25.91h-6.11v-8.89c0-.91,0-1.67,0-2.28s.06-1.14.1-1.59.1-.93.17-1.42l-6.11,14.18h-5.76l-6.07-14.18a21,21,0,0,1,.33,3.12q.06,1.68.06,3.81Z" transform="translate(-60.63 -296.8)"/><path class="cls-1" d="M224.09,322.71H218V296.8h6.11l8.56,19.33,8.6-19.33h6.19v25.91h-6.11v-8.89c0-.91,0-1.67,0-2.28s0-1.14.09-1.59.1-.93.18-1.42l-6.11,14.18h-5.76l-6.07-14.18a21,21,0,0,1,.33,3.12q.06,1.68.06,3.81Z" transform="translate(-60.63 -296.8)"/><path class="cls-1" d="M257.36,322.71h-6.58l10.28-25.91h6.15l10.23,25.91h-6.69l-2-5.46h-9.31Zm6-15.75-2.07,5.53h5.69L264.87,307c-.15-.45-.31-.9-.46-1.37a8.86,8.86,0,0,1-.32-1.16,8.67,8.67,0,0,1-.29,1.14C263.66,306,263.5,306.49,263.32,307Z" transform="translate(-60.63 -296.8)"/><path class="cls-1" d="M292.08,322.71H280.79V296.8h10.9a16.1,16.1,0,0,1,7.45,1.65,13.05,13.05,0,0,1,5.1,18.06,12.33,12.33,0,0,1-4.91,4.55A15.29,15.29,0,0,1,292.08,322.71Zm-5-23.32v20.8l-3-2.73h7.35a9.3,9.3,0,0,0,4.26-.91,6.32,6.32,0,0,0,2.71-2.63,8.46,8.46,0,0,0,.93-4.09,8.33,8.33,0,0,0-1-4.19,6.64,6.64,0,0,0-2.84-2.66,9.83,9.83,0,0,0-4.46-.93h-7Z" transform="translate(-60.63 -296.8)"/></svg>